  0
SECTION
  2
HEADER
  9
$ACADVER
  1
AC1009
  9
$EXTMIN
 10
0.0
 20
0.0
 30
0.0
  9
$EXTMAX
 10
1000.0
 20
1000.0
 30
0.0
  9
$FILLMODE
 70
 0
  9
$SPLFRAME
 70
 1
  0
ENDSEC
  0
SECTION
  2
TABLES
  0
TABLE
  2
LAYER
 70
1
  0
LAYER
  2
0
 70
     0
 62
     7
  6
CONTINUOUS
  0
ENDTAB
  0
ENDSEC
  0
SECTION
  2
ENTITIES
  0
LINE
  8
0
 62
     0
 10
178.822
 20
15.3899
 30
0.0
 11
196.202
 21
15.3899
 31
0.0
  0
LINE
  8
0
 62
     0
 10
196.202
 20
15.3899
 30
0.0
 11
196.202
 21
12.2149
 31
0.0
  0
LINE
  8
0
 62
     0
 10
196.202
 20
12.2149
 30
0.0
 11
178.822
 21
12.2149
 31
0.0
  0
LINE
  8
0
 62
     0
 10
178.822
 20
12.2149
 30
0.0
 11
178.822
 21
15.3899
 31
0.0
  0
LINE
  8
0
 62
     0
 10
178.822
 20
15.3899
 30
0.0
 11
196.202
 21
15.3899
 31
0.0
  0
LINE
  8
0
 62
     0
 10
196.202
 20
15.3899
 30
0.0
 11
196.202
 21
12.2149
 31
0.0
  0
LINE
  8
0
 62
     0
 10
196.202
 20
12.2149
 30
0.0
 11
178.822
 21
12.2149
 31
0.0
  0
LINE
  8
0
 62
     0
 10
178.822
 20
12.2149
 30
0.0
 11
178.822
 21
15.3899
 31
0.0
  0
LINE
  8
0
 62
     0
 10
229.093
 20
23.8566
 30
0.0
 11
229.093
 21
27.0316
 31
0.0
  0
LINE
  8
0
 62
     0
 10
229.093
 20
27.0316
 30
0.0
 11
179.881
 21
27.0316
 31
0.0
  0
LINE
  8
0
 62
     0
 10
179.881
 20
27.0316
 30
0.0
 11
179.236
 21
27.0316
 31
0.0
  0
LINE
  8
0
 62
     0
 10
179.236
 20
27.0316
 30
0.0
 11
177.305
 21
26.5121
 31
0.0
  0
LINE
  8
0
 62
     0
 10
177.305
 20
26.5121
 30
0.0
 11
175.202
 21
25.0954
 31
0.0
  0
LINE
  8
0
 62
     0
 10
175.202
 20
25.0954
 30
0.0
 11
173.786
 21
22.9926
 31
0.0
  0
LINE
  8
0
 62
     0
 10
173.786
 20
22.9926
 30
0.0
 11
173.266
 21
21.0619
 31
0.0
  0
LINE
  8
0
 62
     0
 10
173.266
 20
21.0619
 30
0.0
 11
173.266
 21
20.417
 31
0.0
  0
LINE
  8
0
 62
     0
 10
173.266
 20
20.417
 30
0.0
 11
173.266
 21
6.92326
 31
0.0
  0
LINE
  8
0
 62
     0
 10
173.266
 20
6.92326
 30
0.0
 11
173.266
 21
6.58978
 31
0.0
  0
LINE
  8
0
 62
     0
 10
173.266
 20
6.58978
 30
0.0
 11
172.995
 21
5.58518
 31
0.0
  0
LINE
  8
0
 62
     0
 10
172.995
 20
5.58518
 30
0.0
 11
172.259
 21
4.49104
 31
0.0
  0
LINE
  8
0
 62
     0
 10
172.259
 20
4.49104
 30
0.0
 11
171.165
 21
3.75514
 31
0.0
  0
LINE
  8
0
 62
     0
 10
171.165
 20
3.75514
 30
0.0
 11
170.16
 21
3.48368
 31
0.0
  0
LINE
  8
0
 62
     0
 10
170.16
 20
3.48368
 30
0.0
 11
169.827
 21
3.48368
 31
0.0
  0
LINE
  8
0
 62
     0
 10
169.827
 20
3.48368
 30
0.0
 11
169.449
 21
3.48368
 31
0.0
  0
LINE
  8
0
 62
     0
 10
169.449
 20
3.48368
 30
0.0
 11
168.318
 21
3.83233
 31
0.0
  0
LINE
  8
0
 62
     0
 10
168.318
 20
3.83233
 30
0.0
 11
167.306
 21
4.56957
 31
0.0
  0
LINE
  8
0
 62
     0
 10
167.306
 20
4.56957
 30
0.0
 11
167.149
 21
4.76388
 31
0.0
  0
LINE
  8
0
 62
     0
 10
167.149
 20
4.76388
 30
0.0
 11
151.164
 21
24.569
 31
0.0
  0
LINE
  8
0
 62
     0
 10
151.164
 20
24.569
 30
0.0
 11
150.938
 21
24.8488
 31
0.0
  0
LINE
  8
0
 62
     0
 10
150.938
 20
24.8488
 30
0.0
 11
150.14
 21
25.5888
 31
0.0
  0
LINE
  8
0
 62
     0
 10
150.14
 20
25.5888
 30
0.0
 11
148.913
 21
26.3646
 31
0.0
  0
LINE
  8
0
 62
     0
 10
148.913
 20
26.3646
 30
0.0
 11
147.526
 21
26.8593
 31
0.0
  0
LINE
  8
0
 62
     0
 10
147.526
 20
26.8593
 30
0.0
 11
146.392
 21
27.0316
 31
0.0
  0
LINE
  8
0
 62
     0
 10
146.392
 20
27.0316
 30
0.0
 11
146.014
 21
27.0316
 31
0.0
  0
LINE
  8
0
 62
     0
 10
146.014
 20
27.0316
 30
0.0
 11
145.795
 21
27.0316
 31
0.0
  0
LINE
  8
0
 62
     0
 10
145.795
 20
27.0316
 30
0.0
 11
145.212
 21
26.9847
 31
0.0
  0
LINE
  8
0
 62
     0
 10
145.212
 20
26.9847
 30
0.0
 11
145.142
 21
26.9751
 31
0.0
  0
LINE
  8
0
 62
     0
 10
145.142
 20
26.9751
 30
0.0
 11
164.677
 21
2.77261
 31
0.0
  0
LINE
  8
0
 62
     0
 10
164.677
 20
2.77261
 30
0.0
 11
164.677
 21
2.77124
 31
0.0
  0
LINE
  8
0
 62
     0
 10
164.677
 20
2.77124
 30
0.0
 11
164.902
 21
2.49287
 31
0.0
  0
LINE
  8
0
 62
     0
 10
164.902
 20
2.49287
 30
0.0
 11
165.699
 21
1.75286
 31
0.0
  0
LINE
  8
0
 62
     0
 10
165.699
 20
1.75286
 30
0.0
 11
166.926
 21
0.977029
 31
0.0
  0
LINE
  8
0
 62
     0
 10
166.926
 20
0.977029
 30
0.0
 11
168.313
 21
0.482314
 31
0.0
  0
LINE
  8
0
 62
     0
 10
168.313
 20
0.482314
 30
0.0
 11
169.448
 21
0.308681
 31
0.0
  0
LINE
  8
0
 62
     0
 10
169.448
 20
0.308681
 30
0.0
 11
169.827
 21
0.308681
 31
0.0
  0
LINE
  8
0
 62
     0
 10
169.827
 20
0.308681
 30
0.0
 11
170.47
 21
0.308681
 31
0.0
  0
LINE
  8
0
 62
     0
 10
170.47
 20
0.308681
 30
0.0
 11
172.401
 21
0.829578
 31
0.0
  0
LINE
  8
0
 62
     0
 10
172.401
 20
0.829578
 30
0.0
 11
174.504
 21
2.2462
 31
0.0
  0
LINE
  8
0
 62
     0
 10
174.504
 20
2.2462
 30
0.0
 11
175.92
 21
4.34908
 31
0.0
  0
LINE
  8
0
 62
     0
 10
175.92
 20
4.34908
 30
0.0
 11
176.441
 21
6.27973
 31
0.0
  0
LINE
  8
0
 62
     0
 10
176.441
 20
6.27973
 30
0.0
 11
176.441
 21
6.92326
 31
0.0
  0
LINE
  8
0
 62
     0
 10
176.441
 20
6.92326
 30
0.0
 11
176.441
 21
20.417
 31
0.0
  0
LINE
  8
0
 62
     0
 10
176.441
 20
20.417
 30
0.0
 11
176.441
 21
20.7519
 31
0.0
  0
LINE
  8
0
 62
     0
 10
176.441
 20
20.7519
 30
0.0
 11
176.711
 21
21.7565
 31
0.0
  0
LINE
  8
0
 62
     0
 10
176.711
 20
21.7565
 30
0.0
 11
177.449
 21
22.8506
 31
0.0
  0
LINE
  8
0
 62
     0
 10
177.449
 20
22.8506
 30
0.0
 11
178.542
 21
23.5865
 31
0.0
  0
LINE
  8
0
 62
     0
 10
178.542
 20
23.5865
 30
0.0
 11
179.546
 21
23.8566
 31
0.0
  0
LINE
  8
0
 62
     0
 10
179.546
 20
23.8566
 30
0.0
 11
179.881
 21
23.8566
 31
0.0
  0
LINE
  8
0
 62
     0
 10
179.881
 20
23.8566
 30
0.0
 11
229.093
 21
23.8566
 31
0.0
  0
LINE
  8
0
 62
     0
 10
229.093
 20
23.8566
 30
0.0
 11
229.093
 21
27.0316
 31
0.0
  0
LINE
  8
0
 62
     0
 10
229.093
 20
27.0316
 30
0.0
 11
179.881
 21
27.0316
 31
0.0
  0
LINE
  8
0
 62
     0
 10
179.881
 20
27.0316
 30
0.0
 11
179.236
 21
27.0316
 31
0.0
  0
LINE
  8
0
 62
     0
 10
179.236
 20
27.0316
 30
0.0
 11
177.305
 21
26.5121
 31
0.0
  0
LINE
  8
0
 62
     0
 10
177.305
 20
26.5121
 30
0.0
 11
175.202
 21
25.0954
 31
0.0
  0
LINE
  8
0
 62
     0
 10
175.202
 20
25.0954
 30
0.0
 11
173.786
 21
22.9926
 31
0.0
  0
LINE
  8
0
 62
     0
 10
173.786
 20
22.9926
 30
0.0
 11
173.266
 21
21.0619
 31
0.0
  0
LINE
  8
0
 62
     0
 10
173.266
 20
21.0619
 30
0.0
 11
173.266
 21
20.417
 31
0.0
  0
LINE
  8
0
 62
     0
 10
173.266
 20
20.417
 30
0.0
 11
173.266
 21
6.92326
 31
0.0
  0
LINE
  8
0
 62
     0
 10
173.266
 20
6.92326
 30
0.0
 11
173.266
 21
6.58978
 31
0.0
  0
LINE
  8
0
 62
     0
 10
173.266
 20
6.58978
 30
0.0
 11
172.995
 21
5.58518
 31
0.0
  0
LINE
  8
0
 62
     0
 10
172.995
 20
5.58518
 30
0.0
 11
172.259
 21
4.49104
 31
0.0
  0
LINE
  8
0
 62
     0
 10
172.259
 20
4.49104
 30
0.0
 11
171.165
 21
3.75514
 31
0.0
  0
LINE
  8
0
 62
     0
 10
171.165
 20
3.75514
 30
0.0
 11
170.16
 21
3.48368
 31
0.0
  0
LINE
  8
0
 62
     0
 10
170.16
 20
3.48368
 30
0.0
 11
169.827
 21
3.48368
 31
0.0
  0
LINE
  8
0
 62
     0
 10
169.827
 20
3.48368
 30
0.0
 11
169.449
 21
3.48368
 31
0.0
  0
LINE
  8
0
 62
     0
 10
169.449
 20
3.48368
 30
0.0
 11
168.318
 21
3.83233
 31
0.0
  0
LINE
  8
0
 62
     0
 10
168.318
 20
3.83233
 30
0.0
 11
167.306
 21
4.56957
 31
0.0
  0
LINE
  8
0
 62
     0
 10
167.306
 20
4.56957
 30
0.0
 11
167.149
 21
4.76388
 31
0.0
  0
LINE
  8
0
 62
     0
 10
167.149
 20
4.76388
 30
0.0
 11
151.164
 21
24.569
 31
0.0
  0
LINE
  8
0
 62
     0
 10
151.164
 20
24.569
 30
0.0
 11
150.938
 21
24.8488
 31
0.0
  0
LINE
  8
0
 62
     0
 10
150.938
 20
24.8488
 30
0.0
 11
150.14
 21
25.5888
 31
0.0
  0
LINE
  8
0
 62
     0
 10
150.14
 20
25.5888
 30
0.0
 11
148.913
 21
26.3646
 31
0.0
  0
LINE
  8
0
 62
     0
 10
148.913
 20
26.3646
 30
0.0
 11
147.526
 21
26.8593
 31
0.0
  0
LINE
  8
0
 62
     0
 10
147.526
 20
26.8593
 30
0.0
 11
146.392
 21
27.0316
 31
0.0
  0
LINE
  8
0
 62
     0
 10
146.392
 20
27.0316
 30
0.0
 11
146.014
 21
27.0316
 31
0.0
  0
LINE
  8
0
 62
     0
 10
146.014
 20
27.0316
 30
0.0
 11
145.795
 21
27.0316
 31
0.0
  0
LINE
  8
0
 62
     0
 10
145.795
 20
27.0316
 30
0.0
 11
145.212
 21
26.9847
 31
0.0
  0
LINE
  8
0
 62
     0
 10
145.212
 20
26.9847
 30
0.0
 11
145.142
 21
26.9751
 31
0.0
  0
LINE
  8
0
 62
     0
 10
145.142
 20
26.9751
 30
0.0
 11
164.677
 21
2.77261
 31
0.0
  0
LINE
  8
0
 62
     0
 10
164.677
 20
2.77261
 30
0.0
 11
164.677
 21
2.77124
 31
0.0
  0
LINE
  8
0
 62
     0
 10
164.677
 20
2.77124
 30
0.0
 11
164.902
 21
2.49287
 31
0.0
  0
LINE
  8
0
 62
     0
 10
164.902
 20
2.49287
 30
0.0
 11
165.699
 21
1.75286
 31
0.0
  0
LINE
  8
0
 62
     0
 10
165.699
 20
1.75286
 30
0.0
 11
166.926
 21
0.977029
 31
0.0
  0
LINE
  8
0
 62
     0
 10
166.926
 20
0.977029
 30
0.0
 11
168.313
 21
0.482314
 31
0.0
  0
LINE
  8
0
 62
     0
 10
168.313
 20
0.482314
 30
0.0
 11
169.448
 21
0.308681
 31
0.0
  0
LINE
  8
0
 62
     0
 10
169.448
 20
0.308681
 30
0.0
 11
169.827
 21
0.308681
 31
0.0
  0
LINE
  8
0
 62
     0
 10
169.827
 20
0.308681
 30
0.0
 11
170.47
 21
0.308681
 31
0.0
  0
LINE
  8
0
 62
     0
 10
170.47
 20
0.308681
 30
0.0
 11
172.401
 21
0.829578
 31
0.0
  0
LINE
  8
0
 62
     0
 10
172.401
 20
0.829578
 30
0.0
 11
174.504
 21
2.2462
 31
0.0
  0
LINE
  8
0
 62
     0
 10
174.504
 20
2.2462
 30
0.0
 11
175.92
 21
4.34908
 31
0.0
  0
LINE
  8
0
 62
     0
 10
175.92
 20
4.34908
 30
0.0
 11
176.441
 21
6.27973
 31
0.0
  0
LINE
  8
0
 62
     0
 10
176.441
 20
6.27973
 30
0.0
 11
176.441
 21
6.92326
 31
0.0
  0
LINE
  8
0
 62
     0
 10
176.441
 20
6.92326
 30
0.0
 11
176.441
 21
20.417
 31
0.0
  0
LINE
  8
0
 62
     0
 10
176.441
 20
20.417
 30
0.0
 11
176.441
 21
20.7519
 31
0.0
  0
LINE
  8
0
 62
     0
 10
176.441
 20
20.7519
 30
0.0
 11
176.711
 21
21.7565
 31
0.0
  0
LINE
  8
0
 62
     0
 10
176.711
 20
21.7565
 30
0.0
 11
177.449
 21
22.8506
 31
0.0
  0
LINE
  8
0
 62
     0
 10
177.449
 20
22.8506
 30
0.0
 11
178.542
 21
23.5865
 31
0.0
  0
LINE
  8
0
 62
     0
 10
178.542
 20
23.5865
 30
0.0
 11
179.546
 21
23.8566
 31
0.0
  0
LINE
  8
0
 62
     0
 10
179.546
 20
23.8566
 30
0.0
 11
179.881
 21
23.8566
 31
0.0
  0
LINE
  8
0
 62
     0
 10
179.881
 20
23.8566
 30
0.0
 11
229.093
 21
23.8566
 31
0.0
  0
LINE
  8
0
 62
     0
 10
217.453
 20
0.425813
 30
0.0
 11
217.1
 21
0.640789
 31
0.0
  0
LINE
  8
0
 62
     0
 10
217.1
 20
0.640789
 30
0.0
 11
216.154
 21
1.46348
 31
0.0
  0
LINE
  8
0
 62
     0
 10
216.154
 20
1.46348
 30
0.0
 11
215.152
 21
2.79053
 31
0.0
  0
LINE
  8
0
 62
     0
 10
215.152
 20
2.79053
 30
0.0
 11
214.505
 21
4.34908
 31
0.0
  0
LINE
  8
0
 62
     0
 10
214.505
 20
4.34908
 30
0.0
 11
214.278
 21
5.64582
 31
0.0
  0
LINE
  8
0
 62
     0
 10
214.278
 20
5.64582
 30
0.0
 11
214.278
 21
6.07716
 31
0.0
  0
LINE
  8
0
 62
     0
 10
214.278
 20
6.07716
 30
0.0
 11
214.278
 21
21.3568
 31
0.0
  0
LINE
  8
0
 62
     0
 10
214.278
 20
21.3568
 30
0.0
 11
217.453
 21
21.3568
 31
0.0
  0
LINE
  8
0
 62
     0
 10
217.453
 20
21.3568
 30
0.0
 11
217.453
 21
0.425813
 31
0.0
  0
LINE
  8
0
 62
     0
 10
217.453
 20
0.425813
 30
0.0
 11
217.1
 21
0.640789
 31
0.0
  0
LINE
  8
0
 62
     0
 10
217.1
 20
0.640789
 30
0.0
 11
216.154
 21
1.46348
 31
0.0
  0
LINE
  8
0
 62
     0
 10
216.154
 20
1.46348
 30
0.0
 11
215.152
 21
2.79053
 31
0.0
  0
LINE
  8
0
 62
     0
 10
215.152
 20
2.79053
 30
0.0
 11
214.505
 21
4.34908
 31
0.0
  0
LINE
  8
0
 62
     0
 10
214.505
 20
4.34908
 30
0.0
 11
214.278
 21
5.64582
 31
0.0
  0
LINE
  8
0
 62
     0
 10
214.278
 20
5.64582
 30
0.0
 11
214.278
 21
6.07716
 31
0.0
  0
LINE
  8
0
 62
     0
 10
214.278
 20
6.07716
 30
0.0
 11
214.278
 21
21.3568
 31
0.0
  0
LINE
  8
0
 62
     0
 10
214.278
 20
21.3568
 30
0.0
 11
217.453
 21
21.3568
 31
0.0
  0
LINE
  8
0
 62
     0
 10
217.453
 20
21.3568
 30
0.0
 11
217.453
 21
0.425813
 31
0.0
  0
LINE
  8
0
 62
     0
 10
178.806
 20
3.48368
 30
0.0
 11
179.02
 21
3.13228
 31
0.0
  0
LINE
  8
0
 62
     0
 10
179.02
 20
3.13228
 30
0.0
 11
179.842
 21
2.18557
 31
0.0
  0
LINE
  8
0
 62
     0
 10
179.842
 20
2.18557
 30
0.0
 11
181.169
 21
1.18374
 31
0.0
  0
LINE
  8
0
 62
     0
 10
181.169
 20
1.18374
 30
0.0
 11
182.727
 21
0.537436
 31
0.0
  0
LINE
  8
0
 62
     0
 10
182.727
 20
0.537436
 30
0.0
 11
184.025
 21
0.308681
 31
0.0
  0
LINE
  8
0
 62
     0
 10
184.025
 20
0.308681
 30
0.0
 11
184.457
 21
0.308681
 31
0.0
  0
LINE
  8
0
 62
     0
 10
184.457
 20
0.308681
 30
0.0
 11
200.64
 21
0.308681
 31
0.0
  0
LINE
  8
0
 62
     0
 10
200.64
 20
0.308681
 30
0.0
 11
200.64
 21
3.48368
 31
0.0
  0
LINE
  8
0
 62
     0
 10
200.64
 20
3.48368
 30
0.0
 11
178.806
 21
3.48368
 31
0.0
  0
LINE
  8
0
 62
     0
 10
178.806
 20
3.48368
 30
0.0
 11
179.02
 21
3.13228
 31
0.0
  0
LINE
  8
0
 62
     0
 10
179.02
 20
3.13228
 30
0.0
 11
179.842
 21
2.18557
 31
0.0
  0
LINE
  8
0
 62
     0
 10
179.842
 20
2.18557
 30
0.0
 11
181.169
 21
1.18374
 31
0.0
  0
LINE
  8
0
 62
     0
 10
181.169
 20
1.18374
 30
0.0
 11
182.727
 21
0.537436
 31
0.0
  0
LINE
  8
0
 62
     0
 10
182.727
 20
0.537436
 30
0.0
 11
184.025
 21
0.308681
 31
0.0
  0
LINE
  8
0
 62
     0
 10
184.025
 20
0.308681
 30
0.0
 11
184.457
 21
0.308681
 31
0.0
  0
LINE
  8
0
 62
     0
 10
184.457
 20
0.308681
 30
0.0
 11
200.64
 21
0.308681
 31
0.0
  0
LINE
  8
0
 62
     0
 10
200.64
 20
0.308681
 30
0.0
 11
200.64
 21
3.48368
 31
0.0
  0
LINE
  8
0
 62
     0
 10
200.64
 20
3.48368
 30
0.0
 11
178.806
 21
3.48368
 31
0.0
  0
LINE
  8
0
 62
     0
 10
135.96
 20
9.30451
 30
0.0
 11
135.96
 21
12.4795
 31
0.0
  0
LINE
  8
0
 62
     0
 10
135.96
 20
12.4795
 30
0.0
 11
143.947
 21
12.4795
 31
0.0
  0
LINE
  8
0
 62
     0
 10
143.947
 20
12.4795
 30
0.0
 11
146.593
 21
9.30451
 31
0.0
  0
LINE
  8
0
 62
     0
 10
146.593
 20
9.30451
 30
0.0
 11
135.96
 21
9.30451
 31
0.0
  0
LINE
  8
0
 62
     0
 10
135.96
 20
9.30451
 30
0.0
 11
135.96
 21
12.4795
 31
0.0
  0
LINE
  8
0
 62
     0
 10
135.96
 20
12.4795
 30
0.0
 11
143.947
 21
12.4795
 31
0.0
  0
LINE
  8
0
 62
     0
 10
143.947
 20
12.4795
 30
0.0
 11
146.593
 21
9.30451
 31
0.0
  0
LINE
  8
0
 62
     0
 10
146.593
 20
9.30451
 30
0.0
 11
135.96
 21
9.30451
 31
0.0
  0
LINE
  8
0
 62
     0
 10
160.646
 20
0.365181
 30
0.0
 11
141.064
 21
24.6242
 31
0.0
  0
LINE
  8
0
 62
     0
 10
141.064
 20
24.6242
 30
0.0
 11
140.838
 21
24.8984
 31
0.0
  0
LINE
  8
0
 62
     0
 10
140.838
 20
24.8984
 30
0.0
 11
140.043
 21
25.6219
 31
0.0
  0
LINE
  8
0
 62
     0
 10
140.043
 20
25.6219
 30
0.0
 11
138.828
 21
26.3798
 31
0.0
  0
LINE
  8
0
 62
     0
 10
138.828
 20
26.3798
 30
0.0
 11
137.454
 21
26.8635
 31
0.0
  0
LINE
  8
0
 62
     0
 10
137.454
 20
26.8635
 30
0.0
 11
136.333
 21
27.0316
 31
0.0
  0
LINE
  8
0
 62
     0
 10
136.333
 20
27.0316
 30
0.0
 11
135.96
 21
27.0316
 31
0.0
  0
LINE
  8
0
 62
     0
 10
135.96
 20
27.0316
 30
0.0
 11
89.6578
 21
27.0316
 31
0.0
  0
LINE
  8
0
 62
     0
 10
89.6578
 20
27.0316
 30
0.0
 11
89.2253
 21
27.0316
 31
0.0
  0
LINE
  8
0
 62
     0
 10
89.2253
 20
27.0316
 30
0.0
 11
87.9285
 21
26.8042
 31
0.0
  0
LINE
  8
0
 62
     0
 10
87.9285
 20
26.8042
 30
0.0
 11
86.3699
 21
26.1593
 31
0.0
  0
LINE
  8
0
 62
     0
 10
86.3699
 20
26.1593
 30
0.0
 11
85.0427
 21
25.1575
 31
0.0
  0
LINE
  8
0
 62
     0
 10
85.0427
 20
25.1575
 30
0.0
 11
84.2215
 21
24.2094
 31
0.0
  0
LINE
  8
0
 62
     0
 10
84.2215
 20
24.2094
 30
0.0
 11
84.008
 21
23.8566
 31
0.0
  0
LINE
  8
0
 62
     0
 10
84.008
 20
23.8566
 30
0.0
 11
83.8549
 21
23.6072
 31
0.0
  0
LINE
  8
0
 62
     0
 10
83.8549
 20
23.6072
 30
0.0
 11
83.2954
 21
22.2346
 31
0.0
  0
LINE
  8
0
 62
     0
 10
83.2954
 20
22.2346
 30
0.0
 11
83.0432
 21
20.8718
 31
0.0
  0
LINE
  8
0
 62
     0
 10
83.0432
 20
20.8718
 30
0.0
 11
83.0432
 21
20.417
 31
0.0
  0
LINE
  8
0
 62
     0
 10
83.0432
 20
20.417
 30
0.0
 11
83.0432
 21
19.8617
 31
0.0
  0
LINE
  8
0
 62
     0
 10
83.0432
 20
19.8617
 30
0.0
 11
83.4263
 21
18.1929
 31
0.0
  0
LINE
  8
0
 62
     0
 10
83.4263
 20
18.1929
 30
0.0
 11
84.4889
 21
16.2898
 31
0.0
  0
LINE
  8
0
 62
     0
 10
84.4889
 20
16.2898
 30
0.0
 11
86.0972
 21
14.8428
 31
0.0
  0
LINE
  8
0
 62
     0
 10
86.0972
 20
14.8428
 30
0.0
 11
87.5923
 21
14.1084
 31
0.0
  0
LINE
  8
0
 62
     0
 10
87.5923
 20
14.1084
 30
0.0
 11
88.1186
 21
13.9829
 31
0.0
  0
LINE
  8
0
 62
     0
 10
88.1186
 20
13.9829
 30
0.0
 11
103.689
 21
10.2691
 31
0.0
  0
LINE
  8
0
 62
     0
 10
103.689
 20
10.2691
 30
0.0
 11
103.962
 21
10.2044
 31
0.0
  0
LINE
  8
0
 62
     0
 10
103.962
 20
10.2044
 30
0.0
 11
104.739
 21
9.82267
 31
0.0
  0
LINE
  8
0
 62
     0
 10
104.739
 20
9.82267
 30
0.0
 11
105.574
 21
9.07023
 31
0.0
  0
LINE
  8
0
 62
     0
 10
105.574
 20
9.07023
 30
0.0
 11
106.127
 21
8.08083
 31
0.0
  0
LINE
  8
0
 62
     0
 10
106.127
 20
8.08083
 30
0.0
 11
106.327
 21
7.21265
 31
0.0
  0
LINE
  8
0
 62
     0
 10
106.327
 20
7.21265
 30
0.0
 11
106.327
 21
6.92326
 31
0.0
  0
LINE
  8
0
 62
     0
 10
106.327
 20
6.92326
 30
0.0
 11
106.327
 21
6.58978
 31
0.0
  0
LINE
  8
0
 62
     0
 10
106.327
 20
6.58978
 30
0.0
 11
106.055
 21
5.58518
 31
0.0
  0
LINE
  8
0
 62
     0
 10
106.055
 20
5.58518
 30
0.0
 11
105.319
 21
4.49104
 31
0.0
  0
LINE
  8
0
 62
     0
 10
105.319
 20
4.49104
 30
0.0
 11
104.225
 21
3.75514
 31
0.0
  0
LINE
  8
0
 62
     0
 10
104.225
 20
3.75514
 30
0.0
 11
103.221
 21
3.48368
 31
0.0
  0
LINE
  8
0
 62
     0
 10
103.221
 20
3.48368
 30
0.0
 11
102.887
 21
3.48368
 31
0.0
  0
LINE
  8
0
 62
     0
 10
102.887
 20
3.48368
 30
0.0
 11
66.4242
 21
3.48368
 31
0.0
  0
LINE
  8
0
 62
     0
 10
66.4242
 20
3.48368
 30
0.0
 11
65.8315
 21
3.48368
 31
0.0
  0
LINE
  8
0
 62
     0
 10
65.8315
 20
3.48368
 30
0.0
 11
64.0553
 21
3.96325
 31
0.0
  0
LINE
  8
0
 62
     0
 10
64.0553
 20
3.96325
 30
0.0
 11
62.1206
 21
5.26687
 31
0.0
  0
LINE
  8
0
 62
     0
 10
62.1206
 20
5.26687
 30
0.0
 11
60.8171
 21
7.20164
 31
0.0
  0
LINE
  8
0
 62
     0
 10
60.8171
 20
7.20164
 30
0.0
 11
60.3388
 21
8.97791
 31
0.0
  0
LINE
  8
0
 62
     0
 10
60.3388
 20
8.97791
 30
0.0
 11
60.3388
 21
9.5691
 31
0.0
  0
LINE
  8
0
 62
     0
 10
60.3388
 20
9.5691
 30
0.0
 11
60.3388
 21
20.417
 31
0.0
  0
LINE
  8
0
 62
     0
 10
60.3388
 20
20.417
 30
0.0
 11
60.3388
 21
21.0619
 31
0.0
  0
LINE
  8
0
 62
     0
 10
60.3388
 20
21.0619
 30
0.0
 11
59.8181
 21
22.9926
 31
0.0
  0
LINE
  8
0
 62
     0
 10
59.8181
 20
22.9926
 30
0.0
 11
58.4013
 21
25.0954
 31
0.0
  0
LINE
  8
0
 62
     0
 10
58.4013
 20
25.0954
 30
0.0
 11
56.2984
 21
26.5121
 31
0.0
  0
LINE
  8
0
 62
     0
 10
56.2984
 20
26.5121
 30
0.0
 11
54.3676
 21
27.0316
 31
0.0
  0
LINE
  8
0
 62
     0
 10
54.3676
 20
27.0316
 30
0.0
 11
53.7242
 21
27.0316
 31
0.0
  0
LINE
  8
0
 62
     0
 10
53.7242
 20
27.0316
 30
0.0
 11
7.42213
 21
27.0316
 31
0.0
  0
LINE
  8
0
 62
     0
 10
7.42213
 20
27.0316
 30
0.0
 11
6.98941
 21
27.0316
 31
0.0
  0
LINE
  8
0
 62
     0
 10
6.98941
 20
27.0316
 30
0.0
 11
5.69129
 21
26.8042
 31
0.0
  0
LINE
  8
0
 62
     0
 10
5.69129
 20
26.8042
 30
0.0
 11
4.13413
 21
26.1579
 31
0.0
  0
LINE
  8
0
 62
     0
 10
4.13413
 20
26.1579
 30
0.0
 11
2.80706
 21
25.1561
 31
0.0
  0
LINE
  8
0
 62
     0
 10
2.80706
 20
25.1561
 30
0.0
 11
1.98438
 21
24.2094
 31
0.0
  0
LINE
  8
0
 62
     0
 10
1.98438
 20
24.2094
 30
0.0
 11
1.77078
 21
23.8566
 31
0.0
  0
LINE
  8
0
 62
     0
 10
1.77078
 20
23.8566
 30
0.0
 11
1.61782
 21
23.6072
 31
0.0
  0
LINE
  8
0
 62
     0
 10
1.61782
 20
23.6072
 30
0.0
 11
1.05971
 21
22.2346
 31
0.0
  0
LINE
  8
0
 62
     0
 10
1.05971
 20
22.2346
 30
0.0
 11
0.80753
 21
20.8718
 31
0.0
  0
LINE
  8
0
 62
     0
 10
0.80753
 20
20.8718
 30
0.0
 11
0.80753
 21
20.417
 31
0.0
  0
LINE
  8
0
 62
     0
 10
0.80753
 20
20.417
 30
0.0
 11
0.80753
 21
19.8617
 31
0.0
  0
LINE
  8
0
 62
     0
 10
0.80753
 20
19.8617
 30
0.0
 11
1.19063
 21
18.1929
 31
0.0
  0
LINE
  8
0
 62
     0
 10
1.19063
 20
18.1929
 30
0.0
 11
2.25309
 21
16.2898
 31
0.0
  0
LINE
  8
0
 62
     0
 10
2.25309
 20
16.2898
 30
0.0
 11
3.85988
 21
14.8428
 31
0.0
  0
LINE
  8
0
 62
     0
 10
3.85988
 20
14.8428
 30
0.0
 11
5.35506
 21
14.1084
 31
0.0
  0
LINE
  8
0
 62
     0
 10
5.35506
 20
14.1084
 30
0.0
 11
5.88148
 21
13.9829
 31
0.0
  0
LINE
  8
0
 62
     0
 10
5.88148
 20
13.9829
 30
0.0
 11
21.4519
 21
10.2691
 31
0.0
  0
LINE
  8
0
 62
     0
 10
21.4519
 20
10.2691
 30
0.0
 11
21.7248
 21
10.2044
 31
0.0
  0
LINE
  8
0
 62
     0
 10
21.7248
 20
10.2044
 30
0.0
 11
22.502
 21
9.82267
 31
0.0
  0
LINE
  8
0
 62
     0
 10
22.502
 20
9.82267
 30
0.0
 11
23.3385
 21
9.07023
 31
0.0
  0
LINE
  8
0
 62
     0
 10
23.3385
 20
9.07023
 30
0.0
 11
23.8911
 21
8.08083
 31
0.0
  0
LINE
  8
0
 62
     0
 10
23.8911
 20
8.08083
 30
0.0
 11
24.0909
 21
7.21265
 31
0.0
  0
LINE
  8
0
 62
     0
 10
24.0909
 20
7.21265
 30
0.0
 11
24.0909
 21
6.92326
 31
0.0
  0
LINE
  8
0
 62
     0
 10
24.0909
 20
6.92326
 30
0.0
 11
24.0909
 21
6.58978
 31
0.0
  0
LINE
  8
0
 62
     0
 10
24.0909
 20
6.58978
 30
0.0
 11
23.8194
 21
5.58518
 31
0.0
  0
LINE
  8
0
 62
     0
 10
23.8194
 20
5.58518
 30
0.0
 11
23.0821
 21
4.49104
 31
0.0
  0
LINE
  8
0
 62
     0
 10
23.0821
 20
4.49104
 30
0.0
 11
21.9893
 21
3.75514
 31
0.0
  0
LINE
  8
0
 62
     0
 10
21.9893
 20
3.75514
 30
0.0
 11
20.9848
 21
3.48368
 31
0.0
  0
LINE
  8
0
 62
     0
 10
20.9848
 20
3.48368
 30
0.0
 11
20.6513
 21
3.48368
 31
0.0
  0
LINE
  8
0
 62
     0
 10
20.6513
 20
3.48368
 30
0.0
 11
0.183279
 21
3.48368
 31
0.0
  0
LINE
  8
0
 62
     0
 10
0.183279
 20
3.48368
 30
0.0
 11
0.183279
 21
3.4823
 31
0.0
  0
LINE
  8
0
 62
     0
 10
0.183279
 20
3.4823
 30
0.0
 11
0.396875
 21
3.1309
 31
0.0
  0
LINE
  8
0
 62
     0
 10
0.396875
 20
3.1309
 30
0.0
 11
1.21956
 21
2.18419
 31
0.0
  0
LINE
  8
0
 62
     0
 10
1.21956
 20
2.18419
 30
0.0
 11
2.54661
 21
1.18236
 31
0.0
  0
LINE
  8
0
 62
     0
 10
2.54661
 20
1.18236
 30
0.0
 11
4.10379
 21
0.537436
 31
0.0
  0
LINE
  8
0
 62
     0
 10
4.10379
 20
0.537436
 30
0.0
 11
5.40191
 21
0.308681
 31
0.0
  0
LINE
  8
0
 62
     0
 10
5.40191
 20
0.308681
 30
0.0
 11
5.83463
 21
0.308681
 31
0.0
  0
LINE
  8
0
 62
     0
 10
5.83463
 20
0.308681
 30
0.0
 11
20.6513
 21
0.308681
 31
0.0
  0
LINE
  8
0
 62
     0
 10
20.6513
 20
0.308681
 30
0.0
 11
21.0826
 21
0.308681
 31
0.0
  0
LINE
  8
0
 62
     0
 10
21.0826
 20
0.308681
 30
0.0
 11
22.3793
 21
0.537436
 31
0.0
  0
LINE
  8
0
 62
     0
 10
22.3793
 20
0.537436
 30
0.0
 11
23.9379
 21
1.18374
 31
0.0
  0
LINE
  8
0
 62
     0
 10
23.9379
 20
1.18374
 30
0.0
 11
25.265
 21
2.18557
 31
0.0
  0
LINE
  8
0
 62
     0
 10
25.265
 20
2.18557
 30
0.0
 11
26.0863
 21
3.13228
 31
0.0
  0
LINE
  8
0
 62
     0
 10
26.0863
 20
3.13228
 30
0.0
 11
26.3012
 21
3.48368
 31
0.0
  0
LINE
  8
0
 62
     0
 10
26.3012
 20
3.48368
 30
0.0
 11
26.4542
 21
3.73447
 31
0.0
  0
LINE
  8
0
 62
     0
 10
26.4542
 20
3.73447
 30
0.0
 11
27.0123
 21
5.10702
 31
0.0
  0
LINE
  8
0
 62
     0
 10
27.0123
 20
5.10702
 30
0.0
 11
27.2659
 21
6.46987
 31
0.0
  0
LINE
  8
0
 62
     0
 10
27.2659
 20
6.46987
 30
0.0
 11
27.2659
 21
6.92326
 31
0.0
  0
LINE
  8
0
 62
     0
 10
27.2659
 20
6.92326
 30
0.0
 11
27.2659
 21
7.47998
 31
0.0
  0
LINE
  8
0
 62
     0
 10
27.2659
 20
7.47998
 30
0.0
 11
26.8814
 21
9.1488
 31
0.0
  0
LINE
  8
0
 62
     0
 10
26.8814
 20
9.1488
 30
0.0
 11
25.8189
 21
11.0519
 31
0.0
  0
LINE
  8
0
 62
     0
 10
25.8189
 20
11.0519
 30
0.0
 11
24.2108
 21
12.4988
 31
0.0
  0
LINE
  8
0
 62
     0
 10
24.2108
 20
12.4988
 30
0.0
 11
22.7156
 21
13.2333
 31
0.0
  0
LINE
  8
0
 62
     0
 10
22.7156
 20
13.2333
 30
0.0
 11
22.1905
 21
13.3573
 31
0.0
  0
LINE
  8
0
 62
     0
 10
22.1905
 20
13.3573
 30
0.0
 11
6.62146
 21
17.0711
 31
0.0
  0
LINE
  8
0
 62
     0
 10
6.62146
 20
17.0711
 30
0.0
 11
6.34725
 21
17.1373
 31
0.0
  0
LINE
  8
0
 62
     0
 10
6.34725
 20
17.1373
 30
0.0
 11
5.57004
 21
17.519
 31
0.0
  0
LINE
  8
0
 62
     0
 10
5.57004
 20
17.519
 30
0.0
 11
4.73357
 21
18.2714
 31
0.0
  0
LINE
  8
0
 62
     0
 10
4.73357
 20
18.2714
 30
0.0
 11
4.18098
 21
19.2609
 31
0.0
  0
LINE
  8
0
 62
     0
 10
4.18098
 20
19.2609
 30
0.0
 11
3.98254
 21
20.129
 31
0.0
  0
LINE
  8
0
 62
     0
 10
3.98254
 20
20.129
 30
0.0
 11
3.98254
 21
20.417
 31
0.0
  0
LINE
  8
0
 62
     0
 10
3.98254
 20
20.417
 30
0.0
 11
3.98254
 21
20.7519
 31
0.0
  0
LINE
  8
0
 62
     0
 10
3.98254
 20
20.7519
 30
0.0
 11
4.25263
 21
21.7565
 31
0.0
  0
LINE
  8
0
 62
     0
 10
4.25263
 20
21.7565
 30
0.0
 11
4.98849
 21
22.8506
 31
0.0
  0
LINE
  8
0
 62
     0
 10
4.98849
 20
22.8506
 30
0.0
 11
6.08267
 21
23.5865
 31
0.0
  0
LINE
  8
0
 62
     0
 10
6.08267
 20
23.5865
 30
0.0
 11
7.08723
 21
23.8566
 31
0.0
  0
LINE
  8
0
 62
     0
 10
7.08723
 20
23.8566
 30
0.0
 11
7.42213
 21
23.8566
 31
0.0
  0
LINE
  8
0
 62
     0
 10
7.42213
 20
23.8566
 30
0.0
 11
53.7242
 21
23.8566
 31
0.0
  0
LINE
  8
0
 62
     0
 10
53.7242
 20
23.8566
 30
0.0
 11
54.0575
 21
23.8566
 31
0.0
  0
LINE
  8
0
 62
     0
 10
54.0575
 20
23.8566
 30
0.0
 11
55.0623
 21
23.5865
 31
0.0
  0
LINE
  8
0
 62
     0
 10
55.0623
 20
23.5865
 30
0.0
 11
56.1552
 21
22.8506
 31
0.0
  0
LINE
  8
0
 62
     0
 10
56.1552
 20
22.8506
 30
0.0
 11
56.8925
 21
21.7565
 31
0.0
  0
LINE
  8
0
 62
     0
 10
56.8925
 20
21.7565
 30
0.0
 11
57.1638
 21
20.7519
 31
0.0
  0
LINE
  8
0
 62
     0
 10
57.1638
 20
20.7519
 30
0.0
 11
57.1638
 21
20.417
 31
0.0
  0
LINE
  8
0
 62
     0
 10
57.1638
 20
20.417
 30
0.0
 11
57.1638
 21
9.5691
 31
0.0
  0
LINE
  8
0
 62
     0
 10
57.1638
 20
9.5691
 30
0.0
 11
57.1638
 21
9.06336
 31
0.0
  0
LINE
  8
0
 62
     0
 10
57.1638
 20
9.06336
 30
0.0
 11
57.3857
 21
7.54338
 31
0.0
  0
LINE
  8
0
 62
     0
 10
57.3857
 20
7.54338
 30
0.0
 11
58.021
 21
5.67337
 31
0.0
  0
LINE
  8
0
 62
     0
 10
58.021
 20
5.67337
 30
0.0
 11
59.0215
 21
4.00734
 31
0.0
  0
LINE
  8
0
 62
     0
 10
59.0215
 20
4.00734
 30
0.0
 11
59.9765
 21
2.90904
 31
0.0
  0
LINE
  8
0
 62
     0
 10
59.9765
 20
2.90904
 30
0.0
 11
60.3388
 21
2.59209
 31
0.0
  0
LINE
  8
0
 62
     0
 10
60.3388
 20
2.59209
 30
0.0
 11
60.7452
 21
2.23793
 31
0.0
  0
LINE
  8
0
 62
     0
 10
60.7452
 20
2.23793
 30
0.0
 11
63.1169
 21
0.917773
 31
0.0
  0
LINE
  8
0
 62
     0
 10
63.1169
 20
0.917773
 30
0.0
 11
65.5973
 21
0.308681
 31
0.0
  0
LINE
  8
0
 62
     0
 10
65.5973
 20
0.308681
 30
0.0
 11
66.4242
 21
0.308681
 31
0.0
  0
LINE
  8
0
 62
     0
 10
66.4242
 20
0.308681
 30
0.0
 11
102.887
 21
0.308681
 31
0.0
  0
LINE
  8
0
 62
     0
 10
102.887
 20
0.308681
 30
0.0
 11
103.318
 21
0.308681
 31
0.0
  0
LINE
  8
0
 62
     0
 10
103.318
 20
0.308681
 30
0.0
 11
104.617
 21
0.537436
 31
0.0
  0
LINE
  8
0
 62
     0
 10
104.617
 20
0.537436
 30
0.0
 11
106.174
 21
1.18374
 31
0.0
  0
LINE
  8
0
 62
     0
 10
106.174
 20
1.18374
 30
0.0
 11
107.501
 21
2.18557
 31
0.0
  0
LINE
  8
0
 62
     0
 10
107.501
 20
2.18557
 30
0.0
 11
108.324
 21
3.13228
 31
0.0
  0
LINE
  8
0
 62
     0
 10
108.324
 20
3.13228
 30
0.0
 11
108.538
 21
3.48368
 31
0.0
  0
LINE
  8
0
 62
     0
 10
108.538
 20
3.48368
 30
0.0
 11
108.69
 21
3.73447
 31
0.0
  0
LINE
  8
0
 62
     0
 10
108.69
 20
3.73447
 30
0.0
 11
109.248
 21
5.10702
 31
0.0
  0
LINE
  8
0
 62
     0
 10
109.248
 20
5.10702
 30
0.0
 11
109.502
 21
6.46987
 31
0.0
  0
LINE
  8
0
 62
     0
 10
109.502
 20
6.46987
 30
0.0
 11
109.502
 21
6.92326
 31
0.0
  0
LINE
  8
0
 62
     0
 10
109.502
 20
6.92326
 30
0.0
 11
109.502
 21
7.47998
 31
0.0
  0
LINE
  8
0
 62
     0
 10
109.502
 20
7.47998
 30
0.0
 11
109.117
 21
9.1488
 31
0.0
  0
LINE
  8
0
 62
     0
 10
109.117
 20
9.1488
 30
0.0
 11
108.056
 21
11.0519
 31
0.0
  0
LINE
  8
0
 62
     0
 10
108.056
 20
11.0519
 30
0.0
 11
106.448
 21
12.4988
 31
0.0
  0
LINE
  8
0
 62
     0
 10
106.448
 20
12.4988
 30
0.0
 11
104.953
 21
13.2333
 31
0.0
  0
LINE
  8
0
 62
     0
 10
104.953
 20
13.2333
 30
0.0
 11
104.428
 21
13.3573
 31
0.0
  0
LINE
  8
0
 62
     0
 10
104.428
 20
13.3573
 30
0.0
 11
88.8573
 21
17.0711
 31
0.0
  0
LINE
  8
0
 62
     0
 10
88.8573
 20
17.0711
 30
0.0
 11
88.5832
 21
17.1373
 31
0.0
  0
LINE
  8
0
 62
     0
 10
88.5832
 20
17.1373
 30
0.0
 11
87.8057
 21
17.519
 31
0.0
  0
LINE
  8
0
 62
     0
 10
87.8057
 20
17.519
 30
0.0
 11
86.9692
 21
18.2714
 31
0.0
  0
LINE
  8
0
 62
     0
 10
86.9692
 20
18.2714
 30
0.0
 11
86.4168
 21
19.2609
 31
0.0
  0
LINE
  8
0
 62
     0
 10
86.4168
 20
19.2609
 30
0.0
 11
86.2182
 21
20.129
 31
0.0
  0
LINE
  8
0
 62
     0
 10
86.2182
 20
20.129
 30
0.0
 11
86.2182
 21
20.417
 31
0.0
  0
LINE
  8
0
 62
     0
 10
86.2182
 20
20.417
 30
0.0
 11
86.2182
 21
20.7519
 31
0.0
  0
LINE
  8
0
 62
     0
 10
86.2182
 20
20.7519
 30
0.0
 11
86.4884
 21
21.7565
 31
0.0
  0
LINE
  8
0
 62
     0
 10
86.4884
 20
21.7565
 30
0.0
 11
87.2243
 21
22.8506
 31
0.0
  0
LINE
  8
0
 62
     0
 10
87.2243
 20
22.8506
 30
0.0
 11
88.3186
 21
23.5865
 31
0.0
  0
LINE
  8
0
 62
     0
 10
88.3186
 20
23.5865
 30
0.0
 11
89.323
 21
23.8566
 31
0.0
  0
LINE
  8
0
 62
     0
 10
89.323
 20
23.8566
 30
0.0
 11
89.6578
 21
23.8566
 31
0.0
  0
LINE
  8
0
 62
     0
 10
89.6578
 20
23.8566
 30
0.0
 11
135.96
 21
23.8566
 31
0.0
  0
LINE
  8
0
 62
     0
 10
135.96
 20
23.8566
 30
0.0
 11
136.336
 21
23.8566
 31
0.0
  0
LINE
  8
0
 62
     0
 10
136.336
 20
23.8566
 30
0.0
 11
137.468
 21
23.5093
 31
0.0
  0
LINE
  8
0
 62
     0
 10
137.468
 20
23.5093
 30
0.0
 11
138.479
 21
22.7707
 31
0.0
  0
LINE
  8
0
 62
     0
 10
138.479
 20
22.7707
 30
0.0
 11
138.637
 21
22.575
 31
0.0
  0
LINE
  8
0
 62
     0
 10
138.637
 20
22.575
 30
0.0
 11
154.623
 21
2.77124
 31
0.0
  0
LINE
  8
0
 62
     0
 10
154.623
 20
2.77124
 30
0.0
 11
154.848
 21
2.49287
 31
0.0
  0
LINE
  8
0
 62
     0
 10
154.848
 20
2.49287
 30
0.0
 11
155.645
 21
1.75286
 31
0.0
  0
LINE
  8
0
 62
     0
 10
155.645
 20
1.75286
 30
0.0
 11
156.872
 21
0.977029
 31
0.0
  0
LINE
  8
0
 62
     0
 10
156.872
 20
0.977029
 30
0.0
 11
158.259
 21
0.482314
 31
0.0
  0
LINE
  8
0
 62
     0
 10
158.259
 20
0.482314
 30
0.0
 11
159.393
 21
0.308681
 31
0.0
  0
LINE
  8
0
 62
     0
 10
159.393
 20
0.308681
 30
0.0
 11
159.772
 21
0.308681
 31
0.0
  0
LINE
  8
0
 62
     0
 10
159.772
 20
0.308681
 30
0.0
 11
159.99
 21
0.308681
 31
0.0
  0
LINE
  8
0
 62
     0
 10
159.99
 20
0.308681
 30
0.0
 11
160.575
 21
0.356912
 31
0.0
  0
LINE
  8
0
 62
     0
 10
160.575
 20
0.356912
 30
0.0
 11
160.646
 21
0.365181
 31
0.0
  0
LINE
  8
0
 62
     0
 10
160.646
 20
0.365181
 30
0.0
 11
141.064
 21
24.6242
 31
0.0
  0
LINE
  8
0
 62
     0
 10
141.064
 20
24.6242
 30
0.0
 11
140.838
 21
24.8984
 31
0.0
  0
LINE
  8
0
 62
     0
 10
140.838
 20
24.8984
 30
0.0
 11
140.043
 21
25.6219
 31
0.0
  0
LINE
  8
0
 62
     0
 10
140.043
 20
25.6219
 30
0.0
 11
138.828
 21
26.3798
 31
0.0
  0
LINE
  8
0
 62
     0
 10
138.828
 20
26.3798
 30
0.0
 11
137.454
 21
26.8635
 31
0.0
  0
LINE
  8
0
 62
     0
 10
137.454
 20
26.8635
 30
0.0
 11
136.333
 21
27.0316
 31
0.0
  0
LINE
  8
0
 62
     0
 10
136.333
 20
27.0316
 30
0.0
 11
135.96
 21
27.0316
 31
0.0
  0
LINE
  8
0
 62
     0
 10
135.96
 20
27.0316
 30
0.0
 11
89.6578
 21
27.0316
 31
0.0
  0
LINE
  8
0
 62
     0
 10
89.6578
 20
27.0316
 30
0.0
 11
89.2253
 21
27.0316
 31
0.0
  0
LINE
  8
0
 62
     0
 10
89.2253
 20
27.0316
 30
0.0
 11
87.9285
 21
26.8042
 31
0.0
  0
LINE
  8
0
 62
     0
 10
87.9285
 20
26.8042
 30
0.0
 11
86.3699
 21
26.1593
 31
0.0
  0
LINE
  8
0
 62
     0
 10
86.3699
 20
26.1593
 30
0.0
 11
85.0427
 21
25.1575
 31
0.0
  0
LINE
  8
0
 62
     0
 10
85.0427
 20
25.1575
 30
0.0
 11
84.2215
 21
24.2094
 31
0.0
  0
LINE
  8
0
 62
     0
 10
84.2215
 20
24.2094
 30
0.0
 11
84.008
 21
23.8566
 31
0.0
  0
LINE
  8
0
 62
     0
 10
84.008
 20
23.8566
 30
0.0
 11
83.8549
 21
23.6072
 31
0.0
  0
LINE
  8
0
 62
     0
 10
83.8549
 20
23.6072
 30
0.0
 11
83.2954
 21
22.2346
 31
0.0
  0
LINE
  8
0
 62
     0
 10
83.2954
 20
22.2346
 30
0.0
 11
83.0432
 21
20.8718
 31
0.0
  0
LINE
  8
0
 62
     0
 10
83.0432
 20
20.8718
 30
0.0
 11
83.0432
 21
20.417
 31
0.0
  0
LINE
  8
0
 62
     0
 10
83.0432
 20
20.417
 30
0.0
 11
83.0432
 21
19.8617
 31
0.0
  0
LINE
  8
0
 62
     0
 10
83.0432
 20
19.8617
 30
0.0
 11
83.4263
 21
18.1929
 31
0.0
  0
LINE
  8
0
 62
     0
 10
83.4263
 20
18.1929
 30
0.0
 11
84.4889
 21
16.2898
 31
0.0
  0
LINE
  8
0
 62
     0
 10
84.4889
 20
16.2898
 30
0.0
 11
86.0972
 21
14.8428
 31
0.0
  0
LINE
  8
0
 62
     0
 10
86.0972
 20
14.8428
 30
0.0
 11
87.5923
 21
14.1084
 31
0.0
  0
LINE
  8
0
 62
     0
 10
87.5923
 20
14.1084
 30
0.0
 11
88.1186
 21
13.9829
 31
0.0
  0
LINE
  8
0
 62
     0
 10
88.1186
 20
13.9829
 30
0.0
 11
103.689
 21
10.2691
 31
0.0
  0
LINE
  8
0
 62
     0
 10
103.689
 20
10.2691
 30
0.0
 11
103.962
 21
10.2044
 31
0.0
  0
LINE
  8
0
 62
     0
 10
103.962
 20
10.2044
 30
0.0
 11
104.739
 21
9.82267
 31
0.0
  0
LINE
  8
0
 62
     0
 10
104.739
 20
9.82267
 30
0.0
 11
105.574
 21
9.07023
 31
0.0
  0
LINE
  8
0
 62
     0
 10
105.574
 20
9.07023
 30
0.0
 11
106.127
 21
8.08083
 31
0.0
  0
LINE
  8
0
 62
     0
 10
106.127
 20
8.08083
 30
0.0
 11
106.327
 21
7.21265
 31
0.0
  0
LINE
  8
0
 62
     0
 10
106.327
 20
7.21265
 30
0.0
 11
106.327
 21
6.92326
 31
0.0
  0
LINE
  8
0
 62
     0
 10
106.327
 20
6.92326
 30
0.0
 11
106.327
 21
6.58978
 31
0.0
  0
LINE
  8
0
 62
     0
 10
106.327
 20
6.58978
 30
0.0
 11
106.055
 21
5.58518
 31
0.0
  0
LINE
  8
0
 62
     0
 10
106.055
 20
5.58518
 30
0.0
 11
105.319
 21
4.49104
 31
0.0
  0
LINE
  8
0
 62
     0
 10
105.319
 20
4.49104
 30
0.0
 11
104.225
 21
3.75514
 31
0.0
  0
LINE
  8
0
 62
     0
 10
104.225
 20
3.75514
 30
0.0
 11
103.221
 21
3.48368
 31
0.0
  0
LINE
  8
0
 62
     0
 10
103.221
 20
3.48368
 30
0.0
 11
102.887
 21
3.48368
 31
0.0
  0
LINE
  8
0
 62
     0
 10
102.887
 20
3.48368
 30
0.0
 11
66.4242
 21
3.48368
 31
0.0
  0
LINE
  8
0
 62
     0
 10
66.4242
 20
3.48368
 30
0.0
 11
65.8315
 21
3.48368
 31
0.0
  0
LINE
  8
0
 62
     0
 10
65.8315
 20
3.48368
 30
0.0
 11
64.0553
 21
3.96325
 31
0.0
  0
LINE
  8
0
 62
     0
 10
64.0553
 20
3.96325
 30
0.0
 11
62.1206
 21
5.26687
 31
0.0
  0
LINE
  8
0
 62
     0
 10
62.1206
 20
5.26687
 30
0.0
 11
60.8171
 21
7.20164
 31
0.0
  0
LINE
  8
0
 62
     0
 10
60.8171
 20
7.20164
 30
0.0
 11
60.3388
 21
8.97791
 31
0.0
  0
LINE
  8
0
 62
     0
 10
60.3388
 20
8.97791
 30
0.0
 11
60.3388
 21
9.5691
 31
0.0
  0
LINE
  8
0
 62
     0
 10
60.3388
 20
9.5691
 30
0.0
 11
60.3388
 21
20.417
 31
0.0
  0
LINE
  8
0
 62
     0
 10
60.3388
 20
20.417
 30
0.0
 11
60.3388
 21
21.0619
 31
0.0
  0
LINE
  8
0
 62
     0
 10
60.3388
 20
21.0619
 30
0.0
 11
59.8181
 21
22.9926
 31
0.0
  0
LINE
  8
0
 62
     0
 10
59.8181
 20
22.9926
 30
0.0
 11
58.4013
 21
25.0954
 31
0.0
  0
LINE
  8
0
 62
     0
 10
58.4013
 20
25.0954
 30
0.0
 11
56.2984
 21
26.5121
 31
0.0
  0
LINE
  8
0
 62
     0
 10
56.2984
 20
26.5121
 30
0.0
 11
54.3676
 21
27.0316
 31
0.0
  0
LINE
  8
0
 62
     0
 10
54.3676
 20
27.0316
 30
0.0
 11
53.7242
 21
27.0316
 31
0.0
  0
LINE
  8
0
 62
     0
 10
53.7242
 20
27.0316
 30
0.0
 11
7.42213
 21
27.0316
 31
0.0
  0
LINE
  8
0
 62
     0
 10
7.42213
 20
27.0316
 30
0.0
 11
6.98941
 21
27.0316
 31
0.0
  0
LINE
  8
0
 62
     0
 10
6.98941
 20
27.0316
 30
0.0
 11
5.69129
 21
26.8042
 31
0.0
  0
LINE
  8
0
 62
     0
 10
5.69129
 20
26.8042
 30
0.0
 11
4.13413
 21
26.1579
 31
0.0
  0
LINE
  8
0
 62
     0
 10
4.13413
 20
26.1579
 30
0.0
 11
2.80706
 21
25.1561
 31
0.0
  0
LINE
  8
0
 62
     0
 10
2.80706
 20
25.1561
 30
0.0
 11
1.98438
 21
24.2094
 31
0.0
  0
LINE
  8
0
 62
     0
 10
1.98438
 20
24.2094
 30
0.0
 11
1.77078
 21
23.8566
 31
0.0
  0
LINE
  8
0
 62
     0
 10
1.77078
 20
23.8566
 30
0.0
 11
1.61782
 21
23.6072
 31
0.0
  0
LINE
  8
0
 62
     0
 10
1.61782
 20
23.6072
 30
0.0
 11
1.05971
 21
22.2346
 31
0.0
  0
LINE
  8
0
 62
     0
 10
1.05971
 20
22.2346
 30
0.0
 11
0.80753
 21
20.8718
 31
0.0
  0
LINE
  8
0
 62
     0
 10
0.80753
 20
20.8718
 30
0.0
 11
0.80753
 21
20.417
 31
0.0
  0
LINE
  8
0
 62
     0
 10
0.80753
 20
20.417
 30
0.0
 11
0.80753
 21
19.8617
 31
0.0
  0
LINE
  8
0
 62
     0
 10
0.80753
 20
19.8617
 30
0.0
 11
1.19063
 21
18.1929
 31
0.0
  0
LINE
  8
0
 62
     0
 10
1.19063
 20
18.1929
 30
0.0
 11
2.25309
 21
16.2898
 31
0.0
  0
LINE
  8
0
 62
     0
 10
2.25309
 20
16.2898
 30
0.0
 11
3.85988
 21
14.8428
 31
0.0
  0
LINE
  8
0
 62
     0
 10
3.85988
 20
14.8428
 30
0.0
 11
5.35506
 21
14.1084
 31
0.0
  0
LINE
  8
0
 62
     0
 10
5.35506
 20
14.1084
 30
0.0
 11
5.88148
 21
13.9829
 31
0.0
  0
LINE
  8
0
 62
     0
 10
5.88148
 20
13.9829
 30
0.0
 11
21.4519
 21
10.2691
 31
0.0
  0
LINE
  8
0
 62
     0
 10
21.4519
 20
10.2691
 30
0.0
 11
21.7248
 21
10.2044
 31
0.0
  0
LINE
  8
0
 62
     0
 10
21.7248
 20
10.2044
 30
0.0
 11
22.502
 21
9.82267
 31
0.0
  0
LINE
  8
0
 62
     0
 10
22.502
 20
9.82267
 30
0.0
 11
23.3385
 21
9.07023
 31
0.0
  0
LINE
  8
0
 62
     0
 10
23.3385
 20
9.07023
 30
0.0
 11
23.8911
 21
8.08083
 31
0.0
  0
LINE
  8
0
 62
     0
 10
23.8911
 20
8.08083
 30
0.0
 11
24.0909
 21
7.21265
 31
0.0
  0
LINE
  8
0
 62
     0
 10
24.0909
 20
7.21265
 30
0.0
 11
24.0909
 21
6.92326
 31
0.0
  0
LINE
  8
0
 62
     0
 10
24.0909
 20
6.92326
 30
0.0
 11
24.0909
 21
6.58978
 31
0.0
  0
LINE
  8
0
 62
     0
 10
24.0909
 20
6.58978
 30
0.0
 11
23.8194
 21
5.58518
 31
0.0
  0
LINE
  8
0
 62
     0
 10
23.8194
 20
5.58518
 30
0.0
 11
23.0821
 21
4.49104
 31
0.0
  0
LINE
  8
0
 62
     0
 10
23.0821
 20
4.49104
 30
0.0
 11
21.9893
 21
3.75514
 31
0.0
  0
LINE
  8
0
 62
     0
 10
21.9893
 20
3.75514
 30
0.0
 11
20.9848
 21
3.48368
 31
0.0
  0
LINE
  8
0
 62
     0
 10
20.9848
 20
3.48368
 30
0.0
 11
20.6513
 21
3.48368
 31
0.0
  0
LINE
  8
0
 62
     0
 10
20.6513
 20
3.48368
 30
0.0
 11
0.183279
 21
3.48368
 31
0.0
  0
LINE
  8
0
 62
     0
 10
0.183279
 20
3.48368
 30
0.0
 11
0.183279
 21
3.4823
 31
0.0
  0
LINE
  8
0
 62
     0
 10
0.183279
 20
3.4823
 30
0.0
 11
0.396875
 21
3.1309
 31
0.0
  0
LINE
  8
0
 62
     0
 10
0.396875
 20
3.1309
 30
0.0
 11
1.21956
 21
2.18419
 31
0.0
  0
LINE
  8
0
 62
     0
 10
1.21956
 20
2.18419
 30
0.0
 11
2.54661
 21
1.18236
 31
0.0
  0
LINE
  8
0
 62
     0
 10
2.54661
 20
1.18236
 30
0.0
 11
4.10379
 21
0.537436
 31
0.0
  0
LINE
  8
0
 62
     0
 10
4.10379
 20
0.537436
 30
0.0
 11
5.40191
 21
0.308681
 31
0.0
  0
LINE
  8
0
 62
     0
 10
5.40191
 20
0.308681
 30
0.0
 11
5.83463
 21
0.308681
 31
0.0
  0
LINE
  8
0
 62
     0
 10
5.83463
 20
0.308681
 30
0.0
 11
20.6513
 21
0.308681
 31
0.0
  0
LINE
  8
0
 62
     0
 10
20.6513
 20
0.308681
 30
0.0
 11
21.0826
 21
0.308681
 31
0.0
  0
LINE
  8
0
 62
     0
 10
21.0826
 20
0.308681
 30
0.0
 11
22.3793
 21
0.537436
 31
0.0
  0
LINE
  8
0
 62
     0
 10
22.3793
 20
0.537436
 30
0.0
 11
23.9379
 21
1.18374
 31
0.0
  0
LINE
  8
0
 62
     0
 10
23.9379
 20
1.18374
 30
0.0
 11
25.265
 21
2.18557
 31
0.0
  0
LINE
  8
0
 62
     0
 10
25.265
 20
2.18557
 30
0.0
 11
26.0863
 21
3.13228
 31
0.0
  0
LINE
  8
0
 62
     0
 10
26.0863
 20
3.13228
 30
0.0
 11
26.3012
 21
3.48368
 31
0.0
  0
LINE
  8
0
 62
     0
 10
26.3012
 20
3.48368
 30
0.0
 11
26.4542
 21
3.73447
 31
0.0
  0
LINE
  8
0
 62
     0
 10
26.4542
 20
3.73447
 30
0.0
 11
27.0123
 21
5.10702
 31
0.0
  0
LINE
  8
0
 62
     0
 10
27.0123
 20
5.10702
 30
0.0
 11
27.2659
 21
6.46987
 31
0.0
  0
LINE
  8
0
 62
     0
 10
27.2659
 20
6.46987
 30
0.0
 11
27.2659
 21
6.92326
 31
0.0
  0
LINE
  8
0
 62
     0
 10
27.2659
 20
6.92326
 30
0.0
 11
27.2659
 21
7.47998
 31
0.0
  0
LINE
  8
0
 62
     0
 10
27.2659
 20
7.47998
 30
0.0
 11
26.8814
 21
9.1488
 31
0.0
  0
LINE
  8
0
 62
     0
 10
26.8814
 20
9.1488
 30
0.0
 11
25.8189
 21
11.0519
 31
0.0
  0
LINE
  8
0
 62
     0
 10
25.8189
 20
11.0519
 30
0.0
 11
24.2108
 21
12.4988
 31
0.0
  0
LINE
  8
0
 62
     0
 10
24.2108
 20
12.4988
 30
0.0
 11
22.7156
 21
13.2333
 31
0.0
  0
LINE
  8
0
 62
     0
 10
22.7156
 20
13.2333
 30
0.0
 11
22.1905
 21
13.3573
 31
0.0
  0
LINE
  8
0
 62
     0
 10
22.1905
 20
13.3573
 30
0.0
 11
6.62146
 21
17.0711
 31
0.0
  0
LINE
  8
0
 62
     0
 10
6.62146
 20
17.0711
 30
0.0
 11
6.34725
 21
17.1373
 31
0.0
  0
LINE
  8
0
 62
     0
 10
6.34725
 20
17.1373
 30
0.0
 11
5.57004
 21
17.519
 31
0.0
  0
LINE
  8
0
 62
     0
 10
5.57004
 20
17.519
 30
0.0
 11
4.73357
 21
18.2714
 31
0.0
  0
LINE
  8
0
 62
     0
 10
4.73357
 20
18.2714
 30
0.0
 11
4.18098
 21
19.2609
 31
0.0
  0
LINE
  8
0
 62
     0
 10
4.18098
 20
19.2609
 30
0.0
 11
3.98254
 21
20.129
 31
0.0
  0
LINE
  8
0
 62
     0
 10
3.98254
 20
20.129
 30
0.0
 11
3.98254
 21
20.417
 31
0.0
  0
LINE
  8
0
 62
     0
 10
3.98254
 20
20.417
 30
0.0
 11
3.98254
 21
20.7519
 31
0.0
  0
LINE
  8
0
 62
     0
 10
3.98254
 20
20.7519
 30
0.0
 11
4.25263
 21
21.7565
 31
0.0
  0
LINE
  8
0
 62
     0
 10
4.25263
 20
21.7565
 30
0.0
 11
4.98849
 21
22.8506
 31
0.0
  0
LINE
  8
0
 62
     0
 10
4.98849
 20
22.8506
 30
0.0
 11
6.08267
 21
23.5865
 31
0.0
  0
LINE
  8
0
 62
     0
 10
6.08267
 20
23.5865
 30
0.0
 11
7.08723
 21
23.8566
 31
0.0
  0
LINE
  8
0
 62
     0
 10
7.08723
 20
23.8566
 30
0.0
 11
7.42213
 21
23.8566
 31
0.0
  0
LINE
  8
0
 62
     0
 10
7.42213
 20
23.8566
 30
0.0
 11
53.7242
 21
23.8566
 31
0.0
  0
LINE
  8
0
 62
     0
 10
53.7242
 20
23.8566
 30
0.0
 11
54.0575
 21
23.8566
 31
0.0
  0
LINE
  8
0
 62
     0
 10
54.0575
 20
23.8566
 30
0.0
 11
55.0623
 21
23.5865
 31
0.0
  0
LINE
  8
0
 62
     0
 10
55.0623
 20
23.5865
 30
0.0
 11
56.1552
 21
22.8506
 31
0.0
  0
LINE
  8
0
 62
     0
 10
56.1552
 20
22.8506
 30
0.0
 11
56.8925
 21
21.7565
 31
0.0
  0
LINE
  8
0
 62
     0
 10
56.8925
 20
21.7565
 30
0.0
 11
57.1638
 21
20.7519
 31
0.0
  0
LINE
  8
0
 62
     0
 10
57.1638
 20
20.7519
 30
0.0
 11
57.1638
 21
20.417
 31
0.0
  0
LINE
  8
0
 62
     0
 10
57.1638
 20
20.417
 30
0.0
 11
57.1638
 21
9.5691
 31
0.0
  0
LINE
  8
0
 62
     0
 10
57.1638
 20
9.5691
 30
0.0
 11
57.1638
 21
9.06336
 31
0.0
  0
LINE
  8
0
 62
     0
 10
57.1638
 20
9.06336
 30
0.0
 11
57.3857
 21
7.54338
 31
0.0
  0
LINE
  8
0
 62
     0
 10
57.3857
 20
7.54338
 30
0.0
 11
58.021
 21
5.67337
 31
0.0
  0
LINE
  8
0
 62
     0
 10
58.021
 20
5.67337
 30
0.0
 11
59.0215
 21
4.00734
 31
0.0
  0
LINE
  8
0
 62
     0
 10
59.0215
 20
4.00734
 30
0.0
 11
59.9765
 21
2.90904
 31
0.0
  0
LINE
  8
0
 62
     0
 10
59.9765
 20
2.90904
 30
0.0
 11
60.3388
 21
2.59209
 31
0.0
  0
LINE
  8
0
 62
     0
 10
60.3388
 20
2.59209
 30
0.0
 11
60.7452
 21
2.23793
 31
0.0
  0
LINE
  8
0
 62
     0
 10
60.7452
 20
2.23793
 30
0.0
 11
63.1169
 21
0.917773
 31
0.0
  0
LINE
  8
0
 62
     0
 10
63.1169
 20
0.917773
 30
0.0
 11
65.5973
 21
0.308681
 31
0.0
  0
LINE
  8
0
 62
     0
 10
65.5973
 20
0.308681
 30
0.0
 11
66.4242
 21
0.308681
 31
0.0
  0
LINE
  8
0
 62
     0
 10
66.4242
 20
0.308681
 30
0.0
 11
102.887
 21
0.308681
 31
0.0
  0
LINE
  8
0
 62
     0
 10
102.887
 20
0.308681
 30
0.0
 11
103.318
 21
0.308681
 31
0.0
  0
LINE
  8
0
 62
     0
 10
103.318
 20
0.308681
 30
0.0
 11
104.617
 21
0.537436
 31
0.0
  0
LINE
  8
0
 62
     0
 10
104.617
 20
0.537436
 30
0.0
 11
106.174
 21
1.18374
 31
0.0
  0
LINE
  8
0
 62
     0
 10
106.174
 20
1.18374
 30
0.0
 11
107.501
 21
2.18557
 31
0.0
  0
LINE
  8
0
 62
     0
 10
107.501
 20
2.18557
 30
0.0
 11
108.324
 21
3.13228
 31
0.0
  0
LINE
  8
0
 62
     0
 10
108.324
 20
3.13228
 30
0.0
 11
108.538
 21
3.48368
 31
0.0
  0
LINE
  8
0
 62
     0
 10
108.538
 20
3.48368
 30
0.0
 11
108.69
 21
3.73447
 31
0.0
  0
LINE
  8
0
 62
     0
 10
108.69
 20
3.73447
 30
0.0
 11
109.248
 21
5.10702
 31
0.0
  0
LINE
  8
0
 62
     0
 10
109.248
 20
5.10702
 30
0.0
 11
109.502
 21
6.46987
 31
0.0
  0
LINE
  8
0
 62
     0
 10
109.502
 20
6.46987
 30
0.0
 11
109.502
 21
6.92326
 31
0.0
  0
LINE
  8
0
 62
     0
 10
109.502
 20
6.92326
 30
0.0
 11
109.502
 21
7.47998
 31
0.0
  0
LINE
  8
0
 62
     0
 10
109.502
 20
7.47998
 30
0.0
 11
109.117
 21
9.1488
 31
0.0
  0
LINE
  8
0
 62
     0
 10
109.117
 20
9.1488
 30
0.0
 11
108.056
 21
11.0519
 31
0.0
  0
LINE
  8
0
 62
     0
 10
108.056
 20
11.0519
 30
0.0
 11
106.448
 21
12.4988
 31
0.0
  0
LINE
  8
0
 62
     0
 10
106.448
 20
12.4988
 30
0.0
 11
104.953
 21
13.2333
 31
0.0
  0
LINE
  8
0
 62
     0
 10
104.953
 20
13.2333
 30
0.0
 11
104.428
 21
13.3573
 31
0.0
  0
LINE
  8
0
 62
     0
 10
104.428
 20
13.3573
 30
0.0
 11
88.8573
 21
17.0711
 31
0.0
  0
LINE
  8
0
 62
     0
 10
88.8573
 20
17.0711
 30
0.0
 11
88.5832
 21
17.1373
 31
0.0
  0
LINE
  8
0
 62
     0
 10
88.5832
 20
17.1373
 30
0.0
 11
87.8057
 21
17.519
 31
0.0
  0
LINE
  8
0
 62
     0
 10
87.8057
 20
17.519
 30
0.0
 11
86.9692
 21
18.2714
 31
0.0
  0
LINE
  8
0
 62
     0
 10
86.9692
 20
18.2714
 30
0.0
 11
86.4168
 21
19.2609
 31
0.0
  0
LINE
  8
0
 62
     0
 10
86.4168
 20
19.2609
 30
0.0
 11
86.2182
 21
20.129
 31
0.0
  0
LINE
  8
0
 62
     0
 10
86.2182
 20
20.129
 30
0.0
 11
86.2182
 21
20.417
 31
0.0
  0
LINE
  8
0
 62
     0
 10
86.2182
 20
20.417
 30
0.0
 11
86.2182
 21
20.7519
 31
0.0
  0
LINE
  8
0
 62
     0
 10
86.2182
 20
20.7519
 30
0.0
 11
86.4884
 21
21.7565
 31
0.0
  0
LINE
  8
0
 62
     0
 10
86.4884
 20
21.7565
 30
0.0
 11
87.2243
 21
22.8506
 31
0.0
  0
LINE
  8
0
 62
     0
 10
87.2243
 20
22.8506
 30
0.0
 11
88.3186
 21
23.5865
 31
0.0
  0
LINE
  8
0
 62
     0
 10
88.3186
 20
23.5865
 30
0.0
 11
89.323
 21
23.8566
 31
0.0
  0
LINE
  8
0
 62
     0
 10
89.323
 20
23.8566
 30
0.0
 11
89.6578
 21
23.8566
 31
0.0
  0
LINE
  8
0
 62
     0
 10
89.6578
 20
23.8566
 30
0.0
 11
135.96
 21
23.8566
 31
0.0
  0
LINE
  8
0
 62
     0
 10
135.96
 20
23.8566
 30
0.0
 11
136.336
 21
23.8566
 31
0.0
  0
LINE
  8
0
 62
     0
 10
136.336
 20
23.8566
 30
0.0
 11
137.468
 21
23.5093
 31
0.0
  0
LINE
  8
0
 62
     0
 10
137.468
 20
23.5093
 30
0.0
 11
138.479
 21
22.7707
 31
0.0
  0
LINE
  8
0
 62
     0
 10
138.479
 20
22.7707
 30
0.0
 11
138.637
 21
22.575
 31
0.0
  0
LINE
  8
0
 62
     0
 10
138.637
 20
22.575
 30
0.0
 11
154.623
 21
2.77124
 31
0.0
  0
LINE
  8
0
 62
     0
 10
154.623
 20
2.77124
 30
0.0
 11
154.848
 21
2.49287
 31
0.0
  0
LINE
  8
0
 62
     0
 10
154.848
 20
2.49287
 30
0.0
 11
155.645
 21
1.75286
 31
0.0
  0
LINE
  8
0
 62
     0
 10
155.645
 20
1.75286
 30
0.0
 11
156.872
 21
0.977029
 31
0.0
  0
LINE
  8
0
 62
     0
 10
156.872
 20
0.977029
 30
0.0
 11
158.259
 21
0.482314
 31
0.0
  0
LINE
  8
0
 62
     0
 10
158.259
 20
0.482314
 30
0.0
 11
159.393
 21
0.308681
 31
0.0
  0
LINE
  8
0
 62
     0
 10
159.393
 20
0.308681
 30
0.0
 11
159.772
 21
0.308681
 31
0.0
  0
LINE
  8
0
 62
     0
 10
159.772
 20
0.308681
 30
0.0
 11
159.99
 21
0.308681
 31
0.0
  0
LINE
  8
0
 62
     0
 10
159.99
 20
0.308681
 30
0.0
 11
160.575
 21
0.356912
 31
0.0
  0
LINE
  8
0
 62
     0
 10
160.575
 20
0.356912
 30
0.0
 11
160.646
 21
0.365181
 31
0.0
  0
LINE
  8
0
 62
     0
 10
42.0825
 20
0.425813
 30
0.0
 11
41.7297
 21
0.640789
 31
0.0
  0
LINE
  8
0
 62
     0
 10
41.7297
 20
0.640789
 30
0.0
 11
40.7818
 21
1.46348
 31
0.0
  0
LINE
  8
0
 62
     0
 10
40.7818
 20
1.46348
 30
0.0
 11
39.7799
 21
2.79053
 31
0.0
  0
LINE
  8
0
 62
     0
 10
39.7799
 20
2.79053
 30
0.0
 11
39.135
 21
4.34908
 31
0.0
  0
LINE
  8
0
 62
     0
 10
39.135
 20
4.34908
 30
0.0
 11
38.9075
 21
5.64582
 31
0.0
  0
LINE
  8
0
 62
     0
 10
38.9075
 20
5.64582
 30
0.0
 11
38.9075
 21
6.07716
 31
0.0
  0
LINE
  8
0
 62
     0
 10
38.9075
 20
6.07716
 30
0.0
 11
38.9075
 21
21.3568
 31
0.0
  0
LINE
  8
0
 62
     0
 10
38.9075
 20
21.3568
 30
0.0
 11
42.0825
 21
21.3568
 31
0.0
  0
LINE
  8
0
 62
     0
 10
42.0825
 20
21.3568
 30
0.0
 11
42.0825
 21
0.425813
 31
0.0
  0
LINE
  8
0
 62
     0
 10
42.0825
 20
0.425813
 30
0.0
 11
41.7297
 21
0.640789
 31
0.0
  0
LINE
  8
0
 62
     0
 10
41.7297
 20
0.640789
 30
0.0
 11
40.7818
 21
1.46348
 31
0.0
  0
LINE
  8
0
 62
     0
 10
40.7818
 20
1.46348
 30
0.0
 11
39.7799
 21
2.79053
 31
0.0
  0
LINE
  8
0
 62
     0
 10
39.7799
 20
2.79053
 30
0.0
 11
39.135
 21
4.34908
 31
0.0
  0
LINE
  8
0
 62
     0
 10
39.135
 20
4.34908
 30
0.0
 11
38.9075
 21
5.64582
 31
0.0
  0
LINE
  8
0
 62
     0
 10
38.9075
 20
5.64582
 30
0.0
 11
38.9075
 21
6.07716
 31
0.0
  0
LINE
  8
0
 62
     0
 10
38.9075
 20
6.07716
 30
0.0
 11
38.9075
 21
21.3568
 31
0.0
  0
LINE
  8
0
 62
     0
 10
38.9075
 20
21.3568
 30
0.0
 11
42.0825
 21
21.3568
 31
0.0
  0
LINE
  8
0
 62
     0
 10
42.0825
 20
21.3568
 30
0.0
 11
42.0825
 21
0.425813
 31
0.0
  0
LINE
  8
0
 62
     0
 10
124.32
 20
0.427193
 30
0.0
 11
123.967
 21
0.642165
 31
0.0
  0
LINE
  8
0
 62
     0
 10
123.967
 20
0.642165
 30
0.0
 11
123.02
 21
1.46485
 31
0.0
  0
LINE
  8
0
 62
     0
 10
123.02
 20
1.46485
 30
0.0
 11
122.018
 21
2.7919
 31
0.0
  0
LINE
  8
0
 62
     0
 10
122.018
 20
2.7919
 30
0.0
 11
121.372
 21
4.34908
 31
0.0
  0
LINE
  8
0
 62
     0
 10
121.372
 20
4.34908
 30
0.0
 11
121.145
 21
5.6472
 31
0.0
  0
LINE
  8
0
 62
     0
 10
121.145
 20
5.6472
 30
0.0
 11
121.145
 21
6.07854
 31
0.0
  0
LINE
  8
0
 62
     0
 10
121.145
 20
6.07854
 30
0.0
 11
121.145
 21
21.3582
 31
0.0
  0
LINE
  8
0
 62
     0
 10
121.145
 20
21.3582
 30
0.0
 11
124.32
 21
21.3582
 31
0.0
  0
LINE
  8
0
 62
     0
 10
124.32
 20
21.3582
 30
0.0
 11
124.32
 21
0.427193
 31
0.0
  0
LINE
  8
0
 62
     0
 10
124.32
 20
0.427193
 30
0.0
 11
123.967
 21
0.642165
 31
0.0
  0
LINE
  8
0
 62
     0
 10
123.967
 20
0.642165
 30
0.0
 11
123.02
 21
1.46485
 31
0.0
  0
LINE
  8
0
 62
     0
 10
123.02
 20
1.46485
 30
0.0
 11
122.018
 21
2.7919
 31
0.0
  0
LINE
  8
0
 62
     0
 10
122.018
 20
2.7919
 30
0.0
 11
121.372
 21
4.34908
 31
0.0
  0
LINE
  8
0
 62
     0
 10
121.372
 20
4.34908
 30
0.0
 11
121.145
 21
5.6472
 31
0.0
  0
LINE
  8
0
 62
     0
 10
121.145
 20
5.6472
 30
0.0
 11
121.145
 21
6.07854
 31
0.0
  0
LINE
  8
0
 62
     0
 10
121.145
 20
6.07854
 30
0.0
 11
121.145
 21
21.3582
 31
0.0
  0
LINE
  8
0
 62
     0
 10
121.145
 20
21.3582
 30
0.0
 11
124.32
 21
21.3582
 31
0.0
  0
LINE
  8
0
 62
     0
 10
124.32
 20
21.3582
 30
0.0
 11
124.32
 21
0.427193
 31
0.0
  0
LINE
  8
0
 62
     0
 10
74.5973
 20
26.8166
 30
0.0
 11
74.9487
 21
26.603
 31
0.0
  0
LINE
  8
0
 62
     0
 10
74.9487
 20
26.603
 30
0.0
 11
75.8956
 21
25.7803
 31
0.0
  0
LINE
  8
0
 62
     0
 10
75.8956
 20
25.7803
 30
0.0
 11
76.8974
 21
24.4533
 31
0.0
  0
LINE
  8
0
 62
     0
 10
76.8974
 20
24.4533
 30
0.0
 11
77.5437
 21
22.8961
 31
0.0
  0
LINE
  8
0
 62
     0
 10
77.5437
 20
22.8961
 30
0.0
 11
77.7723
 21
21.598
 31
0.0
  0
LINE
  8
0
 62
     0
 10
77.7723
 20
21.598
 30
0.0
 11
77.7723
 21
21.1653
 31
0.0
  0
LINE
  8
0
 62
     0
 10
77.7723
 20
21.1653
 30
0.0
 11
77.7723
 21
5.8856
 31
0.0
  0
LINE
  8
0
 62
     0
 10
77.7723
 20
5.8856
 30
0.0
 11
74.5973
 21
5.8856
 31
0.0
  0
LINE
  8
0
 62
     0
 10
74.5973
 20
5.8856
 30
0.0
 11
74.5973
 21
26.8166
 31
0.0
  0
LINE
  8
0
 62
     0
 10
74.5973
 20
26.8166
 30
0.0
 11
74.9487
 21
26.603
 31
0.0
  0
LINE
  8
0
 62
     0
 10
74.9487
 20
26.603
 30
0.0
 11
75.8956
 21
25.7803
 31
0.0
  0
LINE
  8
0
 62
     0
 10
75.8956
 20
25.7803
 30
0.0
 11
76.8974
 21
24.4533
 31
0.0
  0
LINE
  8
0
 62
     0
 10
76.8974
 20
24.4533
 30
0.0
 11
77.5437
 21
22.8961
 31
0.0
  0
LINE
  8
0
 62
     0
 10
77.5437
 20
22.8961
 30
0.0
 11
77.7723
 21
21.598
 31
0.0
  0
LINE
  8
0
 62
     0
 10
77.7723
 20
21.598
 30
0.0
 11
77.7723
 21
21.1653
 31
0.0
  0
LINE
  8
0
 62
     0
 10
77.7723
 20
21.1653
 30
0.0
 11
77.7723
 21
5.8856
 31
0.0
  0
LINE
  8
0
 62
     0
 10
77.7723
 20
5.8856
 30
0.0
 11
74.5973
 21
5.8856
 31
0.0
  0
LINE
  8
0
 62
     0
 10
74.5973
 20
5.8856
 30
0.0
 11
74.5973
 21
26.8166
 31
0.0
  0
ENDSEC
  0
EOF
